<svg xmlns="http://www.w3.org/2000/svg" viewBox="0 0 283.46 283.46"><defs><style>.cls-1{fill:#8108a8;}.cls-2{fill:#520e5c;}.cls-3{fill:#680a34;}.cls-4{fill:#350675;}</style></defs><g id="레이어_2" data-name="레이어 2"><g id="레이어_1-2" data-name="레이어 1"><rect class="cls-1" x="15" y="15" width="253.46" height="253.46"/><path class="cls-2" d="M253.46,30V253.46H30V30H253.46m30-30H0V283.46H283.46V0Z"/><path class="cls-3" d="M104,110.12q0,24.33-16.23,35.16a33.42,33.42,0,0,1-13.42,5.16,93.6,93.6,0,0,1-13.42.7q-4.15,0-10.81-.29t-11-.3H32.58A.51.51,0,0,1,32,150c0-.12,0-.4-.06-.85s-.06-.81-.06-1.09.24-.58.7-.58h8.21c.62,0,.94-.61.94-1.82q0-.87-.18-15.44t-.18-15.85l.06-14.41q.12-12.78.06-14.06Q41.15,74,39.32,74H31.06c-.43,0-.64-.19-.64-.58V71.45c0-.39.25-.58.76-.58H67.39q9,0,14.3,2.28a47.16,47.16,0,0,1,5.15,2.52,37.2,37.2,0,0,1,7.21,5.63Q104,91.26,104,110.12ZM95.87,118q0-17.62-9.14-29.06-6.45-8-14.18-11.13a42.27,42.27,0,0,0-15.82-3.22,23.47,23.47,0,0,0-4.57.29c-.86.19-1.29,1-1.29,2.34q0,.89-.06,14.48t-.06,15.41v23.73q0,15.23,1.87,15.58,4.64.88,15.77.88,12.3,0,18.92-6.39Q95.86,132.81,95.87,118Z"/><path class="cls-4" d="M241.81,135a21.55,21.55,0,0,1-6.1,15.35q-6.39,6.74-18.86,6.74A54.15,54.15,0,0,1,203.31,155c-.31-.08-.47,0-.47.35v19q0,13.36,2.4,13.36h10.55a.62.62,0,0,1,.7.7v1.59c0,.46-.11.7-.35.7H184.56a.42.42,0,0,1-.47-.47v-1.82c0-.46.2-.7.59-.7h8.08c.63,0,.94-.49.94-1.46V125.94q0-10.89-1.46-10.89h-8c-.55,0-.82-.16-.82-.47v-2c0-.43.23-.65.7-.65h14.65q1,0,7.76-.17l7.12-.18a51.54,51.54,0,0,1,10.55.88A22.2,22.2,0,0,1,236,119Q241.8,125.08,241.81,135Zm-9.2.82a18.46,18.46,0,0,0-5.8-13.54q-6.8-6.85-19.05-6.85a34,34,0,0,0-3.86.11c-.32.08-.51.47-.59,1.18q-.34,3.11-.35,18c0,.35,0,3.12-.06,8.29s-.06,7.89-.06,8.12a1.17,1.17,0,0,0,.82,1.11q3.75,1.41,11.25,1.41,8.79,0,13-4.22Q232.6,144.82,232.61,135.79Z"/><rect class="cls-1" x="156.73" y="15" width="111.73" height="111.73"/><path class="cls-2" d="M253.46,30v81.73H171.73V30h81.73m30-30H141.73V141.73H283.46V0Z"/><rect class="cls-1" x="15" y="156.73" width="111.73" height="111.73"/><path class="cls-2" d="M111.73,171.73v81.73H30V171.73h81.73m30-30H0V283.46H141.73V141.73Z"/><path class="cls-3" d="M236,119a22.2,22.2,0,0,0-11.78-6.56,51.54,51.54,0,0,0-10.55-.88l-7.12.18q-6.76.17-7.76.17H184.09c-.47,0-.7.22-.7.65v2c0,.31.27.47.82.47h8q1.45,0,1.46,10.89v15.79h9.21c0-4.33.05-6.68.05-7q0-14.94.35-18c.08-.71.27-1.1.59-1.18a34,34,0,0,1,3.86-.11q12.26,0,19.05,6.85a18.46,18.46,0,0,1,5.8,13.54,26.62,26.62,0,0,1-.62,5.94h8.81a22.6,22.6,0,0,0,1-6.76Q241.81,125.07,236,119Z"/><path class="cls-4" d="M68.39,147.33q-11.14,0-15.77-.88c-.67-.12-1.16-1.71-1.47-4.72H41.69c0,2.32,0,3.62,0,3.9,0,1.21-.32,1.82-.94,1.82H32.58c-.46,0-.7.19-.7.58s0,.64.06,1.09.06.73.06.85a.51.51,0,0,0,.58.58h6.51q4.39,0,11,.3t10.81.29a93.6,93.6,0,0,0,13.42-.7,33.42,33.42,0,0,0,13.42-5.16,35.56,35.56,0,0,0,4.47-3.55H86.39C82,145.45,76.05,147.33,68.39,147.33Z"/></g></g></svg>